# Wavefront OBJ file automatically generated by Tiled2Unity

# Vertices (Count = 44)
v -256 -128 0
v -320 -128 0
v -320 -64 0
v -256 -64 0
v -384 -128 0
v -384 -64 0
v -320 -192 0
v -384 -192 0
v -768 -192 0
v -832 -192 0
v -832 -128 0
v -768 -128 0
v -896 -192 0
v -960 -192 0
v -960 -128 0
v -896 -128 0
v -1024 -192 0
v -1024 -128 0
v -384 -384 0
v -448 -384 0
v -448 -320 0
v -384 -320 0
v -1216 -384 0
v -1280 -384 0
v -1280 -320 0
v -1216 -320 0
v -1216 -576 0
v -1280 -576 0
v -1280 -512 0
v -1216 -512 0
v -128 -704 0
v -192 -704 0
v -192 -640 0
v -128 -640 0
v -128 -768 0
v -192 -768 0
v -768 -768 0
v -832 -768 0
v -832 -704 0
v -768 -704 0
v -512 -832 0
v -576 -832 0
v -576 -768 0
v -512 -768 0

# Texture Coorindates (Count = 16)
vt 0.2501221 0.7501221
vt 0.3748779 0.7501221
vt 0.3748779 0.8748779
vt 0.2501221 0.8748779
vt 0.6251221 0.8751221
vt 0.7498779 0.8751221
vt 0.7498779 0.9998779
vt 0.6251221 0.9998779
vt 0.1251221 0.7501221
vt 0.2498779 0.7501221
vt 0.2498779 0.8748779
vt 0.1251221 0.8748779
vt 0.1251221 0.8751221
vt 0.2498779 0.8751221
vt 0.2498779 0.9998779
vt 0.1251221 0.9998779

# Normal
vn 0 0 -1

# Groups (Count = 1)
g mesh_[00]_[00]
f  1/1/1  2/2/1  3/3/1  4/4/1 
f  2/1/1  5/2/1  6/3/1  3/4/1 
f  7/1/1  8/2/1  5/3/1  2/4/1 
f  9/5/1  10/6/1  11/7/1  12/8/1 
f  13/1/1  14/2/1  15/3/1  16/4/1 
f  14/5/1  17/6/1  18/7/1  15/8/1 
f  19/9/1  20/10/1  21/11/1  22/12/1 
f  23/13/1  24/14/1  25/15/1  26/16/1 
f  27/13/1  28/14/1  29/15/1  30/16/1 
f  31/1/1  32/2/1  33/3/1  34/4/1 
f  35/1/1  36/2/1  32/3/1  31/4/1 
f  37/9/1  38/10/1  39/11/1  40/12/1 
f  41/1/1  42/2/1  43/3/1  44/4/1 
